<svg width="1051" height="397" viewBox="0 0 1051 397" fill="none" xmlns="http://www.w3.org/2000/svg">
<path d="M66.7161 349.738H22.688V393.83H14.7124V299.42H73.2004V306.228H22.688V342.929H66.7161V349.738Z" fill="#13243F"/>
<path d="M102.924 393.83H95.1431V323.671H102.924V393.83ZM93.7814 303.375C93.7814 301.905 94.2569 300.673 95.2079 299.679C96.1589 298.642 97.4558 298.123 99.0985 298.123C100.741 298.123 102.038 298.642 102.989 299.679C103.983 300.673 104.48 301.905 104.48 303.375C104.48 304.845 103.983 306.077 102.989 307.071C102.038 308.065 100.741 308.563 99.0985 308.563C97.4558 308.563 96.1589 308.065 95.2079 307.071C94.2569 306.077 93.7814 304.845 93.7814 303.375Z" fill="#13243F"/>
<path d="M138.095 323.671L138.354 335.667C140.991 331.344 144.276 328.059 148.21 325.811C152.144 323.52 156.488 322.374 161.244 322.374C168.765 322.374 174.363 324.492 178.038 328.729C181.712 332.965 183.571 339.32 183.614 347.792V393.83H175.898V347.727C175.855 341.459 174.515 336.791 171.878 333.721C169.284 330.652 165.112 329.118 159.363 329.118C154.565 329.118 150.307 330.631 146.589 333.657C142.915 336.639 140.191 340.681 138.419 345.782V393.83H130.703V323.671H138.095Z" fill="#13243F"/>
<path d="M254.643 393.83C253.865 391.626 253.367 388.362 253.151 384.039C250.428 387.584 246.948 390.329 242.712 392.274C238.519 394.176 234.066 395.127 229.354 395.127C222.611 395.127 217.142 393.247 212.949 389.486C208.799 385.725 206.724 380.97 206.724 375.221C206.724 368.391 209.556 362.987 215.218 359.01C220.925 355.033 228.857 353.045 239.016 353.045H253.087V345.069C253.087 340.054 251.53 336.121 248.418 333.268C245.349 330.371 240.853 328.923 234.931 328.923C229.527 328.923 225.053 330.306 221.508 333.073C217.963 335.84 216.191 339.168 216.191 343.059L208.41 342.994C208.41 337.417 211.004 332.598 216.191 328.534C221.379 324.427 227.755 322.374 235.32 322.374C243.144 322.374 249.304 324.341 253.8 328.275C258.339 332.165 260.673 337.612 260.803 344.615V377.814C260.803 384.601 261.516 389.681 262.943 393.052V393.83H254.643ZM230.262 388.254C235.449 388.254 240.075 387 244.138 384.493C248.245 381.986 251.228 378.636 253.087 374.443V359.01H239.21C231.472 359.097 225.42 360.523 221.054 363.29C216.688 366.013 214.505 369.774 214.505 374.572C214.505 378.506 215.953 381.77 218.85 384.363C221.789 386.957 225.593 388.254 230.262 388.254Z" fill="#13243F"/>
<path d="M295.584 323.671L295.844 335.667C298.481 331.344 301.766 328.059 305.7 325.811C309.634 323.52 313.978 322.374 318.733 322.374C326.255 322.374 331.853 324.492 335.527 328.729C339.202 332.965 341.061 339.32 341.104 347.792V393.83H333.387V347.727C333.344 341.459 332.004 336.791 329.367 333.721C326.774 330.652 322.602 329.118 316.853 329.118C312.054 329.118 307.796 330.631 304.079 333.657C300.404 336.639 297.681 340.681 295.909 345.782V393.83H288.192V323.671H295.584Z" fill="#13243F"/>
<path d="M393.782 388.578C399.185 388.578 403.703 387.065 407.334 384.039C411.008 380.97 412.997 377.015 413.299 372.173H420.756C420.54 376.453 419.2 380.365 416.736 383.91C414.272 387.411 410.987 390.156 406.88 392.145C402.817 394.133 398.451 395.127 393.782 395.127C384.574 395.127 377.269 391.928 371.865 385.531C366.505 379.133 363.825 370.53 363.825 359.723V357.389C363.825 350.472 365.035 344.356 367.456 339.039C369.877 333.721 373.335 329.615 377.831 326.718C382.37 323.822 387.665 322.374 393.717 322.374C401.412 322.374 407.745 324.665 412.716 329.247C417.73 333.83 420.41 339.86 420.756 347.338H413.299C412.954 341.848 410.965 337.417 407.334 334.046C403.746 330.674 399.207 328.988 393.717 328.988C386.714 328.988 381.267 331.517 377.377 336.575C373.529 341.632 371.606 348.722 371.606 357.843V360.112C371.606 369.061 373.529 376.042 377.377 381.057C381.267 386.071 386.736 388.578 393.782 388.578Z" fill="#13243F"/>
<path d="M451.647 393.83H443.866V323.671H451.647V393.83ZM442.504 303.375C442.504 301.905 442.98 300.673 443.931 299.679C444.882 298.642 446.179 298.123 447.822 298.123C449.464 298.123 450.761 298.642 451.712 299.679C452.706 300.673 453.204 301.905 453.204 303.375C453.204 304.845 452.706 306.077 451.712 307.071C450.761 308.065 449.464 308.563 447.822 308.563C446.179 308.563 444.882 308.065 443.931 307.071C442.98 306.077 442.504 304.845 442.504 303.375Z" fill="#13243F"/>
<path d="M524.713 393.83C523.935 391.626 523.438 388.362 523.222 384.039C520.499 387.584 517.019 390.329 512.782 392.274C508.589 394.176 504.137 395.127 499.425 395.127C492.681 395.127 487.213 393.247 483.02 389.486C478.87 385.725 476.795 380.97 476.795 375.221C476.795 368.391 479.626 362.987 485.289 359.01C490.995 355.033 498.928 353.045 509.086 353.045H523.157V345.069C523.157 340.054 521.601 336.121 518.488 333.268C515.419 330.371 510.923 328.923 505.001 328.923C499.598 328.923 495.124 330.306 491.579 333.073C488.034 335.84 486.262 339.168 486.262 343.059L478.481 342.994C478.481 337.417 481.074 332.598 486.262 328.534C491.449 324.427 497.825 322.374 505.39 322.374C513.215 322.374 519.375 324.341 523.87 328.275C528.409 332.165 530.744 337.612 530.873 344.615V377.814C530.873 384.601 531.587 389.681 533.013 393.052V393.83H524.713ZM500.333 388.254C505.52 388.254 510.145 387 514.209 384.493C518.316 381.986 521.298 378.636 523.157 374.443V359.01H509.281C501.543 359.097 495.491 360.523 491.125 363.29C486.759 366.013 484.576 369.774 484.576 374.572C484.576 378.506 486.024 381.77 488.92 384.363C491.86 386.957 495.664 388.254 500.333 388.254Z" fill="#13243F"/>
<path d="M565.952 393.83H558.171V294.232H565.952V393.83Z" fill="#13243F"/>
<path d="M695.948 306.228H663.592V393.83H655.616V306.228H623.324V299.42H695.948V306.228Z" fill="#13243F"/>
<path d="M752.981 384.947C748.312 391.734 740.855 395.127 730.61 395.127C723.131 395.127 717.447 392.966 713.556 388.643C709.666 384.277 707.677 377.836 707.591 369.32V323.671H715.307V368.347C715.307 381.705 720.711 388.384 731.518 388.384C742.757 388.384 749.868 383.737 752.851 374.443V323.671H760.632V393.83H753.11L752.981 384.947Z" fill="#13243F"/>
<path d="M796.192 393.83H788.411V323.671H796.192V393.83ZM787.049 303.375C787.049 301.905 787.524 300.673 788.475 299.679C789.427 298.642 790.723 298.123 792.366 298.123C794.009 298.123 795.306 298.642 796.257 299.679C797.251 300.673 797.748 301.905 797.748 303.375C797.748 304.845 797.251 306.077 796.257 307.071C795.306 308.065 794.009 308.563 792.366 308.563C790.723 308.563 789.427 308.065 788.475 307.071C787.524 306.077 787.049 304.845 787.049 303.375Z" fill="#13243F"/>
<path d="M839.031 305.709V323.671H853.556V330.025H839.031V376.777C839.031 380.667 839.723 383.564 841.106 385.466C842.532 387.368 844.888 388.319 848.174 388.319C849.471 388.319 851.567 388.103 854.463 387.67L854.788 394.025C852.756 394.76 849.989 395.127 846.488 395.127C841.171 395.127 837.302 393.593 834.881 390.524C832.46 387.411 831.25 382.85 831.25 376.842V330.025H818.346V323.671H831.25V305.709H839.031Z" fill="#13243F"/>
<path d="M885.965 393.83H878.184V323.671H885.965V393.83ZM876.823 303.375C876.823 301.905 877.298 300.673 878.249 299.679C879.2 298.642 880.497 298.123 882.14 298.123C883.782 298.123 885.079 298.642 886.03 299.679C887.025 300.673 887.522 301.905 887.522 303.375C887.522 304.845 887.025 306.077 886.03 307.071C885.079 308.065 883.782 308.563 882.14 308.563C880.497 308.563 879.2 308.065 878.249 307.071C877.298 306.077 876.823 304.845 876.823 303.375Z" fill="#13243F"/>
<path d="M909.464 357.713C909.464 350.97 910.761 344.896 913.355 339.492C915.992 334.089 919.688 329.896 924.443 326.913C929.241 323.887 934.667 322.374 940.718 322.374C950.056 322.374 957.621 325.659 963.413 332.23C969.206 338.758 972.102 347.425 972.102 358.232V359.853C972.102 366.64 970.784 372.757 968.147 378.203C965.553 383.607 961.879 387.779 957.124 390.718C952.369 393.658 946.943 395.127 940.848 395.127C931.554 395.127 923.989 391.864 918.153 385.336C912.361 378.765 909.464 370.077 909.464 359.269V357.713ZM917.245 359.853C917.245 368.239 919.407 375.134 923.73 380.538C928.096 385.898 933.802 388.578 940.848 388.578C947.851 388.578 953.514 385.898 957.837 380.538C962.203 375.134 964.386 368.023 964.386 359.205V357.713C964.386 352.353 963.392 347.446 961.403 342.994C959.415 338.541 956.627 335.105 953.039 332.684C949.451 330.22 945.344 328.988 940.718 328.988C933.802 328.988 928.161 331.711 923.795 337.158C919.428 342.562 917.245 349.651 917.245 358.426V359.853Z" fill="#13243F"/>
<path d="M1000.22 323.671L1000.47 335.667C1003.11 331.344 1006.4 328.059 1010.33 325.811C1014.26 323.52 1018.61 322.374 1023.36 322.374C1030.89 322.374 1036.48 324.492 1040.16 328.729C1043.83 332.965 1045.69 339.32 1045.73 347.792V393.83H1038.02V347.727C1037.98 341.459 1036.64 336.791 1034 333.721C1031.4 330.652 1027.23 329.118 1021.48 329.118C1016.69 329.118 1012.43 330.631 1008.71 333.657C1005.04 336.639 1002.31 340.681 1000.54 345.782V393.83H992.823V323.671H1000.22Z" fill="#13243F"/>
<path d="M380.927 226.447C377.688 226.447 375.056 225.637 373.031 224.017C371.209 222.195 369.893 220.07 369.083 217.64L305.31 22.9785C305.107 21.9662 305.006 21.0552 305.006 20.2454C305.006 18.6257 305.613 17.2085 306.828 15.9938C308.043 14.5766 309.561 13.868 311.383 13.868H343.27C346.307 13.868 348.635 14.779 350.255 16.6011C352.077 18.2208 353.19 19.7392 353.595 21.1564L400.97 169.658L448.041 21.1564C448.648 19.7392 449.762 18.2208 451.382 16.6011C453.001 14.779 455.33 13.868 458.366 13.868H490.253C492.075 13.868 493.594 14.5766 494.808 15.9938C496.023 17.2085 496.631 18.6257 496.631 20.2454C496.631 21.0552 496.529 21.9662 496.327 22.9785L432.553 217.64C431.946 220.07 430.63 222.195 428.605 224.017C426.783 225.637 424.151 226.447 420.71 226.447H380.927Z" fill="#13243F"/>
<path d="M555.836 226.447C553.609 226.447 551.787 225.738 550.369 224.321C548.952 222.904 548.244 221.082 548.244 218.855V21.4601C548.244 19.2331 548.952 17.411 550.369 15.9938C551.787 14.5766 553.609 13.868 555.836 13.868H590.152C592.379 13.868 594.201 14.5766 595.618 15.9938C597.036 17.411 597.744 19.2331 597.744 21.4601V218.855C597.744 221.082 597.036 222.904 595.618 224.321C594.201 225.738 592.379 226.447 590.152 226.447H555.836Z" fill="#13243F"/>
<path d="M724.169 226.447C720.929 226.447 718.297 225.637 716.273 224.017C714.451 222.195 713.135 220.07 712.325 217.64L648.551 22.9785C648.349 21.9662 648.247 21.0552 648.247 20.2454C648.247 18.6257 648.855 17.2085 650.07 15.9938C651.284 14.5766 652.803 13.868 654.625 13.868H686.512C689.549 13.868 691.877 14.779 693.496 16.6011C695.319 18.2208 696.432 19.7392 696.837 21.1564L744.212 169.658L791.283 21.1564C791.89 19.7392 793.004 18.2208 794.623 16.6011C796.243 14.779 798.571 13.868 801.608 13.868H833.495C835.317 13.868 836.835 14.5766 838.05 15.9938C839.265 17.2085 839.872 18.6257 839.872 20.2454C839.872 21.0552 839.771 21.9662 839.568 22.9785L775.795 217.64C775.187 220.07 773.872 222.195 771.847 224.017C770.025 225.637 767.393 226.447 763.951 226.447H724.169Z" fill="#13243F"/>
<path d="M847.654 226.447C845.832 226.447 844.313 225.84 843.099 224.625C841.884 223.208 841.277 221.689 841.277 220.07C841.277 219.057 841.378 218.146 841.58 217.336L913.857 22.0675C914.464 19.8404 915.679 17.9171 917.501 16.2975C919.323 14.6778 921.854 13.868 925.093 13.868H963.965C967.204 13.868 969.735 14.6778 971.557 16.2975C973.379 17.9171 974.594 19.8404 975.201 22.0675L1047.48 217.336C1047.68 218.146 1047.78 219.057 1047.78 220.07C1047.78 221.689 1047.17 223.208 1045.96 224.625C1044.75 225.84 1043.23 226.447 1041.4 226.447H1009.82C1006.78 226.447 1004.56 225.738 1003.14 224.321C1001.72 222.904 1000.81 221.588 1000.41 220.373L987.349 186.361H901.71L888.651 220.373C888.246 221.588 887.335 222.904 885.918 224.321C884.501 225.738 882.274 226.447 879.237 226.447H847.654ZM912.946 147.185H975.809L944.529 59.7243L912.946 147.185Z" fill="#13243F"/>
<path d="M107.424 83.5433L73.9646 15.497C73.0058 13.5577 70.5907 12.7408 68.6515 13.6996L48.0164 23.8407C46.0771 24.7995 45.2601 27.2146 46.219 29.1538L70.5794 79.3604C70.5794 79.3604 70.5794 79.3604 70.666 79.4104L15.169 82.934C13.0101 83.0732 11.3271 84.9883 11.4164 87.2338L12.9515 110.175C13.0907 112.334 15.0058 114.017 17.1646 113.877L92.8242 108.831C94.1269 108.775 95.3831 107.999 96.0331 106.873L97.9831 103.496L105.333 90.7652L107.333 87.3011C107.983 86.1753 108.113 84.7495 107.424 83.5433Z" fill="#F8B61D"/>
<path d="M170.511 119.966L246.17 114.92C248.329 114.781 250.244 116.464 250.383 118.622L251.919 141.564C252.058 143.722 250.375 145.637 248.216 145.777L192.556 149.783C192.556 149.783 192.556 149.783 192.469 149.733L217.166 199.557C218.125 201.496 217.308 203.911 215.319 204.957L194.683 215.098C192.744 216.057 190.329 215.24 189.37 213.3L155.911 145.254C155.308 144.098 155.352 142.622 156.002 141.496L157.952 138.119L165.302 125.388L167.302 121.924C167.952 120.798 169.122 119.972 170.511 119.966Z" fill="#F8B61D"/>
<path d="M126.205 153.214L131.251 228.873C131.391 231.032 129.708 232.947 127.549 233.087L104.608 234.622C102.449 234.761 100.534 233.078 100.395 230.919L96.388 175.259C96.388 175.259 96.388 175.259 96.438 175.172L46.6144 199.869C44.6751 200.828 42.2601 200.011 41.2146 198.022L31.0735 177.387C30.1147 175.447 30.9317 173.032 32.8709 172.073L100.917 138.614C102.073 138.011 103.549 138.055 104.675 138.705L108.053 140.655L120.783 148.005L124.247 150.005C125.373 150.655 126.199 151.825 126.205 153.214Z" fill="#F8B61D"/>
<rect x="179.578" y="0.661865" width="31" height="88" rx="4" transform="rotate(30 179.578 0.661865)" fill="#F8B61D"/>
</svg>
