<svg width="28.0538" height="28.0538" viewBox="0 0 28.0538 28.0538" fill="none" xmlns="http://www.w3.org/2000/svg">
<mask id="mask0_619_6565" style="mask-type:luminance" maskUnits="userSpaceOnUse" x="0" y="0" width="29" height="29">
<path d="M28.0538 0H0V28.0538H28.0538V0Z" fill="white"/>
</mask>
<g mask="url(#mask0_619_6565)">
<path d="M0 0.561076C0 0.251202 0.251202 0 0.561076 0H27.4927C27.8026 0 28.0538 0.251202 28.0538 0.561076V27.4927C28.0538 27.8026 27.8026 28.0538 27.4927 28.0538H0.561076C0.251202 28.0538 0 27.8026 0 27.4927V0.561076Z" fill="#0A0A0A"/>
<path d="M14.0275 14.0262L6.17184 6.17184H21.882L14.0275 14.0262Z" fill="url(#paint0_linear_619_6565)"/>
<path d="M21.882 21.8791L6.17184 21.8819L14.0275 14.0261L21.882 21.8791Z" fill="url(#paint1_linear_619_6565)"/>
<path d="M14.0275 14.0262L6.17184 21.882V6.17184L14.0275 14.0262Z" fill="url(#paint2_linear_619_6565)"/>
</g>
<defs>
<linearGradient id="paint0_linear_619_6565" x1="14.0948" y1="14.0947" x2="14.0948" y2="6.25659" gradientUnits="userSpaceOnUse">
<stop stop-color="white"/>
<stop offset="1" stop-color="white" stop-opacity="0.8"/>
</linearGradient>
<linearGradient id="paint1_linear_619_6565" x1="14.0262" y1="14.0261" x2="6.25667" y2="21.7956" gradientUnits="userSpaceOnUse">
<stop stop-color="white" stop-opacity="0.3"/>
<stop offset="1" stop-color="white" stop-opacity="0.5"/>
</linearGradient>
<linearGradient id="paint2_linear_619_6565" x1="6.25668" y1="14.0947" x2="14.0948" y2="14.0947" gradientUnits="userSpaceOnUse">
<stop stop-color="white" stop-opacity="0.8"/>
<stop offset="1" stop-color="white" stop-opacity="0.5"/>
</linearGradient>
</defs>
</svg>
