<svg width="560" height="210" viewBox="0 0 56 21" fill="none" xmlns="http://www.w3.org/2000/svg">
<path d="M10.9957 13.1199C10.9957 12.3252 11.2073 11.5366 11.7462 10.9283C12.235 10.3775 12.9041 10.0409 13.593 9.79997C15.1011 9.27297 16.4811 9.22657 18.2206 9.22867C18.3248 9.22867 18.5343 9.22657 18.5343 9.22657V8.93017C18.5343 7.96047 17.9663 7.09777 17.0335 6.76737C16.725 6.65717 16.3956 6.60877 16.0684 6.60877C14.6853 6.60877 13.6941 7.26867 13.5076 8.61207H11.0187C11.3636 6.26707 13.4158 4.60457 16.0684 4.60457C18.9721 4.60457 21.0461 6.22177 21.0461 9.04437V16.2616H18.5343V14.5991C18.0257 15.6234 16.6197 16.4428 15.0522 16.4428C12.5633 16.4428 10.9957 15.0088 10.9957 13.1188V13.1199ZM16.2747 11.1599C15.8735 11.199 15.4743 11.2566 15.0834 11.3544C14.6009 11.4759 14.0902 11.6787 13.7837 12.0863C13.7337 12.1533 13.6889 12.2253 13.6524 12.3005C13.5461 12.5197 13.5076 12.7647 13.5076 13.0066C13.5076 13.9856 14.2694 14.5312 15.467 14.5312C17.2878 14.5312 18.5343 13.2105 18.5343 11.3894V11.0858C18.5343 11.0858 17.8714 11.0827 17.8256 11.0837C17.0137 11.0919 16.9834 11.1022 16.5634 11.1352C16.4665 11.1424 16.3706 11.1506 16.2737 11.1609L16.2747 11.1599Z" fill="white"/>
<path d="M21.1045 20.4977V18.4028C21.266 18.4255 21.5193 18.4481 21.7507 18.4481C22.7867 18.4481 23.1098 17.6966 23.1098 16.4212V4.78577H25.6237V16.7177C25.6237 19.2006 24.447 20.5893 22.0269 20.5893C21.6819 20.5893 21.289 20.544 21.1055 20.4987L21.1045 20.4977ZM22.8576 1.43911C22.8576 0.60838 23.4944 0 24.3553 0C25.2162 0 25.8738 0.60838 25.8738 1.43911C25.8738 2.26985 25.2172 2.87823 24.3553 2.87823C23.4933 2.87823 22.8576 2.26985 22.8576 1.43911Z" fill="white"/>
<path d="M41.9963 14.6455V16.2627H39.4605V0.141022H41.9963V6.37927C42.6644 5.30867 44.1642 4.60347 45.7766 4.60347C49.2118 4.60347 51.4714 6.94847 51.4714 10.5237C51.4714 14.0988 49.2118 16.4438 45.7766 16.4438C44.1871 16.4438 42.6644 15.715 41.9963 14.6455ZM48.9116 10.5237C48.9116 8.27027 47.4608 6.74467 45.4535 6.74467C43.4461 6.74467 41.9953 8.27027 41.9953 10.5237C41.9953 12.7771 43.4252 14.3037 45.4535 14.3037C47.4817 14.3037 48.9116 12.7544 48.9116 10.5237Z" fill="white"/>
<path d="M52.8128 1.43912C52.8128 0.663971 53.4068 0.0967712 54.2115 0.0967712C55.0161 0.0967712 55.6268 0.663971 55.6268 1.43912C55.6268 2.21427 55.014 2.78147 54.2115 2.78147C53.4089 2.78147 52.8128 2.21427 52.8128 1.43912ZM53.0473 4.78577H55.5612V16.2617H53.0473V4.78577Z" fill="white"/>
<path d="M7.6053 4.78577L1.257 10.5175L7.6209 16.2616H10.9957L6.5985 12.1749L4.8329 10.5175L6.5985 8.86017L10.9811 4.78577H7.6053Z" fill="white"/>
<path d="M2.5139 0.13485H0V16.2555H2.5139V0.13485Z" fill="white"/>
<path d="M27.2819 13.1199C27.2819 12.3252 27.4935 11.5366 28.0323 10.9283C28.5211 10.3775 29.1902 10.0409 29.8792 9.79997C31.3873 9.27297 32.7672 9.22657 34.5067 9.22867C34.611 9.22867 34.8204 9.22657 34.8204 9.22657V8.93017C34.8204 7.96047 34.2524 7.09777 33.3196 6.76737C33.0111 6.65717 32.6818 6.60877 32.3545 6.60877C30.9714 6.60877 29.9803 7.26867 29.7937 8.61207H27.3048C27.6498 6.26707 29.702 4.60457 32.3545 4.60457C35.2582 4.60457 37.3323 6.22177 37.3323 9.04437V16.2616H34.8204V14.5991C34.3118 15.6234 32.9058 16.4428 31.3383 16.4428C28.8494 16.4428 27.2819 15.0088 27.2819 13.1188V13.1199ZM32.5598 11.1599C32.1585 11.199 31.7594 11.2566 31.3685 11.3544C30.886 11.4759 30.3753 11.6787 30.0688 12.0863C30.0188 12.1533 29.974 12.2253 29.9375 12.3005C29.8312 12.5197 29.7926 12.7647 29.7926 13.0066C29.7926 13.9856 30.5545 14.5312 31.7521 14.5312C33.5729 14.5312 34.8194 13.2105 34.8194 11.3894V11.0858C34.8194 11.0858 34.1565 11.0827 34.1107 11.0837C33.2988 11.0919 33.2685 11.1022 32.8485 11.1352C32.7516 11.1424 32.6557 11.1506 32.5588 11.1609L32.5598 11.1599Z" fill="white"/>
</svg>
