<svg width="861" height="280" viewBox="0 0 861 280" fill="none" xmlns="http://www.w3.org/2000/svg">
<path d="M132.53 124.73C131.17 126.83 129.75 128.38 128.26 129.37C126.9 130.24 124.98 130.67 122.51 130.67C120.04 130.67 117.5 130.05 114.9 128.81C112.3 127.57 109.39 126.27 106.18 124.91C102.96 123.43 99.25 122.06 95.04 120.83C90.96 119.59 86.19 118.97 80.75 118.97C72.46 118.97 66.03 120.7 61.45 124.17C56.87 127.51 54.58 131.97 54.58 137.53C54.58 141.37 55.88 144.58 58.48 147.18C61.08 149.78 64.48 152.07 68.69 154.05C73.02 155.91 77.91 157.7 83.35 159.43C88.79 161.04 94.36 162.83 100.05 164.81C105.87 166.79 111.5 169.08 116.94 171.68C122.38 174.28 127.21 177.56 131.42 181.52C135.75 185.36 139.22 190.06 141.81 195.63C144.41 201.07 145.71 207.69 145.71 215.49C145.71 224.77 143.98 233.37 140.51 241.29C137.17 249.09 132.22 255.83 125.66 261.52C119.1 267.21 110.94 271.67 101.16 274.88C91.38 278.09 80.12 279.71 67.38 279.71C60.82 279.71 54.33 279.09 47.89 277.85C41.46 276.74 35.33 275.13 29.51 273.02C23.69 270.79 18.25 268.26 13.18 265.41C8.11 262.56 3.71 259.47 0 256.13L11.88 237.01C13.24 234.78 14.91 233.05 16.89 231.81C18.99 230.57 21.65 229.95 24.87 229.95C28.09 229.95 30.81 230.75 33.41 232.36C36.01 233.84 38.92 235.52 42.13 237.37C45.35 239.1 49.12 240.77 53.45 242.38C57.9 243.86 63.41 244.61 69.97 244.61C74.92 244.61 79.19 244.05 82.78 242.94C86.37 241.83 89.28 240.34 91.5 238.49C93.73 236.51 95.34 234.34 96.33 231.99C97.44 229.52 98 226.98 98 224.38C98 220.17 96.64 216.77 93.92 214.17C91.32 211.45 87.86 209.1 83.53 207.12C79.32 205.14 74.44 203.35 68.87 201.74C63.3 200.13 57.61 198.34 51.79 196.36C46.1 194.38 40.47 192.03 34.9 189.31C29.46 186.59 24.57 183.18 20.24 179.1C16.03 174.89 12.57 169.76 9.85 163.69C7.25 157.63 5.95 150.26 5.95 141.6C5.95 133.68 7.5 126.19 10.59 119.14C13.68 111.96 18.32 105.65 24.51 100.21C30.7 94.77 38.37 90.43 47.53 87.22C56.81 84 67.51 82.39 79.64 82.39C93.25 82.39 105.63 84.62 116.76 89.07C127.89 93.52 137.05 99.34 144.23 106.52L132.54 124.71L132.53 124.73Z" fill="black"/>
<path d="M229 0V157.03H237.54C240.76 157.03 243.29 156.6 245.15 155.73C247.01 154.74 248.86 153.01 250.72 150.53L293.04 94.1C295.14 91.25 297.49 89.09 300.09 87.6C302.81 86.12 306.22 85.37 310.3 85.37H357.07L302.13 155.16C297.8 160.98 292.79 165.55 287.1 168.9C289.95 170.88 292.42 173.17 294.52 175.77C296.62 178.37 298.67 181.28 300.65 184.49L359.86 276.74H313.83C309.87 276.74 306.47 276.12 303.62 274.88C300.77 273.52 298.42 271.17 296.57 267.83L253.51 197.48C251.78 194.51 249.98 192.59 248.13 191.73C246.28 190.87 243.49 190.43 239.78 190.43H229.01V276.74H177.78V0H229.01H229Z" fill="black"/>
<path d="M466.73 82.41C481.08 82.41 494.14 84.7 505.89 89.28C517.65 93.86 527.73 100.42 536.14 108.95C544.55 117.36 551.05 127.63 555.63 139.76C560.21 151.89 562.5 165.56 562.5 180.78C562.5 196 560.21 209.74 555.63 221.99C551.05 234.12 544.56 244.45 536.14 252.99C527.73 261.53 517.64 268.09 505.89 272.66C494.13 277.24 481.08 279.53 466.73 279.53C452.38 279.53 439.07 277.24 427.2 272.66C415.44 268.08 405.36 261.52 396.95 252.99C388.54 244.45 381.98 234.12 377.28 221.99C372.7 209.74 370.41 196 370.41 180.78C370.41 165.56 372.7 151.89 377.28 139.76C381.98 127.63 388.54 117.36 396.95 108.95C405.36 100.41 415.45 93.85 427.2 89.28C439.08 84.7 452.26 82.41 466.73 82.41ZM466.73 241.11C481.33 241.11 492.16 236.1 499.21 226.08C506.26 215.93 509.79 200.9 509.79 180.98C509.79 161.06 506.26 146.27 499.21 136.25C492.16 126.1 481.33 121.03 466.73 121.03C452.13 121.03 440.74 126.1 433.69 136.25C426.64 146.27 423.11 161.18 423.11 180.98C423.11 200.78 426.64 215.94 433.69 226.08C440.74 236.1 451.76 241.11 466.73 241.11Z" fill="black"/>
<path d="M680.98 82.41C695.33 82.41 708.39 84.7 720.14 89.28C731.9 93.86 741.98 100.42 750.39 108.95C758.8 117.36 765.3 127.63 769.88 139.76C774.46 151.89 776.75 165.56 776.75 180.78C776.75 196 774.46 209.74 769.88 221.99C765.3 234.12 758.81 244.45 750.39 252.99C741.98 261.53 731.89 268.09 720.14 272.66C708.38 277.24 695.33 279.53 680.98 279.53C666.63 279.53 653.32 277.24 641.45 272.66C629.69 268.08 619.61 261.52 611.2 252.99C602.79 244.45 596.23 234.12 591.53 221.99C586.95 209.74 584.66 196 584.66 180.78C584.66 165.56 586.95 151.89 591.53 139.76C596.23 127.63 602.79 117.36 611.2 108.95C619.61 100.41 629.7 93.85 641.45 89.28C653.33 84.7 666.51 82.41 680.98 82.41ZM680.98 241.11C695.58 241.11 706.41 236.1 713.46 226.08C720.51 215.93 724.04 200.9 724.04 180.98C724.04 161.06 720.51 146.27 713.46 136.25C706.41 126.1 695.58 121.03 680.98 121.03C666.38 121.03 654.99 126.1 647.94 136.25C640.89 146.27 637.36 161.18 637.36 180.98C637.36 200.78 640.89 215.94 647.94 226.08C654.99 236.1 666.01 241.11 680.98 241.11Z" fill="black"/>
<path d="M860.52 0V276.74H809.29V0H860.52Z" fill="black"/>
</svg>
