<svg width="300" height="46" viewBox="0 0 300 46" fill="none" xmlns="http://www.w3.org/2000/svg">
<g clip-path="url(#clip0_622_12)">
<path d="M78.743 9.51898C68.749 9.51898 60.648 17.576 60.648 27.516C60.648 37.456 68.75 45.513 78.743 45.513C82.712 45.513 86.379 44.24 89.362 42.085V44.471H96.838V28.417H96.814C96.829 28.12 96.838 27.819 96.838 27.516C96.838 17.576 88.737 9.51898 78.743 9.51898ZM78.743 38.058C72.887 38.058 68.142 33.339 68.142 27.515C68.142 21.691 72.887 16.972 78.743 16.972C84.599 16.972 89.344 21.691 89.344 27.515C89.344 33.339 84.599 38.058 78.743 38.058Z" fill="#E6FF32"/>
<path d="M194.074 9.51898C184.08 9.51898 175.979 17.576 175.979 27.516C175.979 37.456 184.081 45.513 194.074 45.513C198.043 45.513 201.71 44.24 204.693 42.085V44.471H212.169V28.417H212.145C212.16 28.12 212.169 27.819 212.169 27.516C212.169 17.576 204.067 9.51898 194.074 9.51898ZM194.074 38.058C188.218 38.058 183.473 33.339 183.473 27.515C183.473 21.691 188.218 16.972 194.074 16.972C199.93 16.972 204.674 21.691 204.674 27.515C204.674 33.339 199.929 38.058 194.074 38.058Z" fill="#E6FF32"/>
<path d="M233.727 9.519C229.758 9.519 226.091 10.792 223.108 12.947V0H215.632V44.472H223.108V42.086C226.09 44.241 229.757 45.514 233.727 45.514C243.721 45.514 251.822 37.457 251.822 27.517C251.822 17.577 243.721 9.52 233.727 9.52V9.519ZM233.727 38.059C227.871 38.059 223.126 33.34 223.126 27.516C223.126 21.692 227.871 16.973 233.727 16.973C239.583 16.973 244.328 21.692 244.328 27.516C244.328 33.34 239.583 38.059 233.727 38.059Z" fill="#E6FF32"/>
<path d="M40.3 38.059C35.763 38.059 31.891 35.222 30.379 31.235H58.006C58.26 30.034 58.395 28.791 58.395 27.519C58.395 17.579 50.294 9.52197 40.3 9.52197C30.306 9.52197 22.205 17.579 22.205 27.519C22.205 37.459 30.306 45.516 40.3 45.516C47.617 45.516 53.916 41.193 56.768 34.979H47.792C45.875 36.886 43.225 38.062 40.3 38.062V38.059ZM40.3 16.975C44.837 16.975 48.709 19.812 50.221 23.799H30.381C31.894 19.812 35.763 16.975 40.302 16.975H40.3Z" fill="#E6FF32"/>
<path d="M281.9 38.059C277.363 38.059 273.491 35.222 271.979 31.235H299.606C299.859 30.034 299.995 28.791 299.995 27.519C299.995 17.579 291.893 9.52197 281.9 9.52197C271.907 9.52197 263.805 17.579 263.805 27.519C263.805 37.459 271.906 45.516 281.9 45.516C289.217 45.516 295.516 41.193 298.368 34.979H289.391C287.475 36.886 284.824 38.062 281.899 38.062V38.059H281.9ZM281.9 16.975C286.437 16.975 290.309 19.812 291.821 23.799H271.982C273.494 19.812 277.363 16.975 281.903 16.975H281.9Z" fill="#E6FF32"/>
<path d="M261.553 0H254.076V44.472H261.553V0Z" fill="#E6FF32"/>
<path d="M11.162 0H3.667V4.827H0V12.263H3.667V27.519C3.667 37.458 11.768 45.516 21.762 45.516V38.062C15.907 38.062 11.162 33.343 11.162 27.519V12.263H21.762V4.827H11.162V0Z" fill="#E6FF32"/>
<path d="M117.189 38.058C111.334 38.058 106.589 33.339 106.589 27.515C106.589 21.691 111.334 16.972 117.189 16.972C121.726 16.972 125.598 19.809 127.11 23.795H134.898C133.174 15.639 125.903 9.51501 117.192 9.51501C107.198 9.51501 99.097 17.572 99.097 27.512C99.097 37.452 107.198 45.509 117.192 45.509C125.903 45.509 133.177 39.385 134.898 31.228H127.11C125.598 35.215 121.729 38.052 117.189 38.052V38.058Z" fill="#E6FF32"/>
<path d="M173.727 27.517V27.199H173.718C173.546 17.407 165.517 9.52 155.629 9.52C151.66 9.52 147.993 10.793 145.01 12.948V0H137.533V44.472H145.01V27.556H145.031V27.517C145.031 21.693 149.776 16.974 155.632 16.974C161.488 16.974 166.233 21.693 166.233 27.517V27.556H166.254V44.472H173.73V27.52L173.727 27.517Z" fill="#E6FF32"/>
</g>
<defs>
<clipPath id="clip0_622_12">
<rect width="299.995" height="45.516" fill="white"/>
</clipPath>
</defs>
</svg>
