<svg width="1293" height="183" viewBox="0 0 1293 183" fill="none" xmlns="http://www.w3.org/2000/svg">
<path d="M150.92 4.08008V35.5801H93.45V179.68H57.44V35.5801H0V4.08008H150.92Z" fill="black"/>
<path d="M334.42 4.14001V179.68H298.41V109.43H214.25V179.68H178.24V4.14001H214.25V77.93H298.41V4.14001H334.42Z" fill="black"/>
<path d="M410.43 179.68V4.14001H374.42V179.68H410.43Z" fill="black"/>
<path d="M618.59 4.14001V179.68H582.58L582.49 179.74L492.12 62.83V179.68H456.11V4.14001H492.12L582.59 121.17V4.14001H618.6H618.59Z" fill="black"/>
<path d="M812.87 179.71H769.67L716.67 111.16L694.48 136.72V179.68H658.47V4.14997H694.48V83.63L763.58 4.08997H809.7L739.55 84.85L812.87 179.71Z" fill="black"/>
<path d="M870.1 179.68V4.14001H834.09V179.68H870.1Z" fill="black"/>
<path d="M946.22 35.64V77.94H1029.01V109.44H946.22V179.69H910.21V4.14001H1037.86V35.64H946.22Z" fill="black"/>
<path d="M1101.42 179.68V4.14001H1065.41V179.68H1101.42Z" fill="black"/>
<path d="M1267.85 55.2C1232.54 17.52 1166.35 39.22 1165.47 91.85C1166.3 144.48 1232.48 166.24 1267.83 128.59L1291.95 148.97C1280.45 163.29 1264.12 173.78 1246.21 178.9C1175.94 198.43 1110.16 133.46 1132.89 63.91C1155.4 -3.88999 1246.81 -20.78 1292.02 34.83L1267.9 55.21H1267.87L1267.85 55.2Z" fill="black"/>
</svg>
