<svg width="1588" height="183" viewBox="0 0 1588 183" fill="none" xmlns="http://www.w3.org/2000/svg">
<path d="M165.83 0H30.04C13.45 0 0 13.45 0 30.04C0 46.63 13.45 60.08 30.04 60.08H165.83C182.42 60.08 195.87 46.63 195.87 30.04C195.87 13.45 182.42 0 165.83 0Z" fill="#271526"/>
<path d="M65.56 150.34C65.56 168.21 80.05 182.74 97.92 182.74C115.79 182.74 130.28 168.21 130.28 150.34C130.28 132.47 115.79 117.94 97.92 117.94C80.05 117.94 65.56 132.47 65.56 150.34Z" fill="#271526"/>
<path d="M446.48 4.08008V35.5801H389.01V179.68H353V35.5801H295.56V4.08008H446.48Z" fill="#271526"/>
<path d="M629.98 4.14001V179.68H593.97V109.43H509.81V179.68H473.8V4.14001H509.81V77.93H593.97V4.14001H629.98Z" fill="#271526"/>
<path d="M705.99 179.68V4.14001H669.98V179.68H705.99Z" fill="#271526"/>
<path d="M914.15 4.14001V179.68H878.14L878.05 179.74L787.68 62.83V179.68H751.67V4.14001H787.68L878.15 121.17V4.14001H914.16H914.15Z" fill="#271526"/>
<path d="M1108.43 179.71H1065.23L1012.23 111.16L990.04 136.72V179.68H954.03V4.14997H990.04V83.63L1059.14 4.08997H1105.26L1035.11 84.85L1108.43 179.71Z" fill="#271526"/>
<path d="M1165.66 179.68V4.14001H1129.65V179.68H1165.66Z" fill="#271526"/>
<path d="M1241.78 35.64V77.94H1324.57V109.44H1241.78V179.69H1205.77V4.14001H1333.42V35.64H1241.78Z" fill="#271526"/>
<path d="M1396.98 179.68V4.14001H1360.97V179.68H1396.98Z" fill="#271526"/>
<path d="M1563.41 55.2C1528.1 17.52 1461.91 39.22 1461.03 91.85C1461.86 144.48 1528.04 166.24 1563.39 128.59L1587.51 148.97C1576.01 163.29 1559.68 173.78 1541.77 178.9C1471.5 198.43 1405.72 133.46 1428.45 63.91C1450.96 -3.88999 1542.37 -20.78 1587.58 34.83L1563.46 55.21H1563.43L1563.41 55.2Z" fill="#271526"/>
</svg>
