<svg width="318" height="99" viewBox="0 0 318 99" fill="none" xmlns="http://www.w3.org/2000/svg">
<path d="M54.9 95C51.8 92.9 49.6 89.7 48.3 85.3C47 80.9 46.4 75.1 46.4 67.8V57.9C46.4 50.6 47.1 44.6 48.6 40.2C50.1 35.7 52.4 32.5 55.6 30.5C58.8 28.5 62.9 27.4 68 27.4C73 27.4 77.1 28.4 80.1 30.5C83.1 32.6 85.4 35.8 86.8 40.2C88.2 44.6 88.9 50.5 88.9 57.8V67.7C88.9 75 88.2 80.8 86.8 85.2C85.4 89.6 83.2 92.8 80.1 94.9C77 96.9 72.8 98 67.6 98C62.2 98.1 58 97 54.9 95ZM72.2 84.3C73.1 82.1 73.5 78.4 73.5 73.4V52.1C73.5 47.2 73.1 43.6 72.2 41.4C71.3 39.1 69.8 38 67.7 38C65.6 38 64.2 39.1 63.3 41.4C62.4 43.7 62 47.2 62 52.1V73.4C62 78.4 62.4 82.1 63.2 84.3C64 86.5 65.5 87.6 67.7 87.6C69.8 87.6 71.3 86.5 72.2 84.3Z" fill="black"/>
<path d="M291.4 68V71.5C291.4 75.9 291.5 79.2 291.8 81.4C292.1 83.6 292.6 85.2 293.4 86.2C294.2 87.2 295.5 87.7 297.2 87.7C299.5 87.7 301.1 86.8 301.9 85C302.8 83.2 303.2 80.2 303.3 76.1L316.6 76.9C316.7 77.5 316.7 78.3 316.7 79.3C316.7 85.6 315 90.3 311.5 93.4C308 96.5 303.2 98.1 296.9 98.1C289.3 98.1 284 95.7 281 91C278 86.3 276.4 78.9 276.4 69V56.9C276.4 46.7 278 39.2 281.1 34.5C284.3 29.8 289.7 27.4 297.3 27.4C302.6 27.4 306.6 28.4 309.4 30.3C312.2 32.2 314.2 35.2 315.4 39.3C316.6 43.4 317.1 49 317.1 56.2V67.9H291.4V68ZM293.4 39.2C292.6 40.2 292.1 41.7 291.8 43.9C291.5 46.1 291.4 49.4 291.4 53.9V58.8H302.6V53.9C302.6 49.5 302.5 46.2 302.2 43.9C301.9 41.6 301.4 40 300.6 39.1C299.8 38.2 298.6 37.7 297 37.7C295.3 37.8 294.1 38.3 293.4 39.2Z" fill="black"/>
<path d="M17.5 66.7L0 3.5H15.3L21.4 32.1C23 39.2 24.1 45.2 24.9 50.1H25.3C25.8 46.5 27 40.6 28.8 32.2L35.1 3.5H50.4L32.7 66.6V96.9H17.6V66.7H17.5Z" fill="black"/>
<path d="M138.5 28.7V97H126.5L125.2 88.6H124.9C121.6 94.9 116.7 98.1 110.2 98.1C105.7 98.1 102.3 96.6 100.2 93.6C98 90.6 97 86 97 79.7V28.7H112.4V78.8C112.4 81.8 112.7 84 113.4 85.3C114.1 86.6 115.2 87.2 116.7 87.2C118 87.2 119.3 86.8 120.5 86C121.7 85.2 122.6 84.1 123.2 82.9V28.7H138.5Z" fill="black"/>
<path d="M217.4 28.7V97H205.4L204.1 88.6H203.8C200.5 94.9 195.6 98.1 189.1 98.1C184.6 98.1 181.2 96.6 179.1 93.6C176.9 90.6 175.9 86 175.9 79.7V28.7H191.3V78.8C191.3 81.8 191.6 84 192.3 85.3C193 86.6 194.1 87.2 195.6 87.2C196.9 87.2 198.2 86.8 199.4 86C200.6 85.2 201.5 84.1 202.1 82.9V28.7H217.4Z" fill="black"/>
<path d="M180.3 15.9H165V97H150V15.9H134.7V3.5H180.2V15.9H180.3Z" fill="black"/>
<path d="M268.2 39.6C267.3 35.3 265.8 32.2 263.7 30.2C261.6 28.3 258.8 27.3 255.1 27.3C252.3 27.3 249.6 28.1 247.2 29.7C244.7 31.3 242.9 33.4 241.5 36H241.4V0H226.6V96.9H239.3L240.9 90.4H241.2C242.4 92.7 244.2 94.5 246.5 95.9C248.9 97.2 251.5 97.9 254.4 97.9C259.6 97.9 263.4 95.5 265.9 90.7C268.3 85.9 269.6 78.4 269.6 68.3V57.5C269.6 49.9 269.1 43.9 268.2 39.6ZM254.1 67.5C254.1 72.5 253.9 76.4 253.5 79.2C253.1 82 252.4 84 251.4 85.2C250.4 86.4 249.1 87 247.5 87C246.2 87 245.1 86.7 244 86.1C242.9 85.5 242.1 84.6 241.4 83.4V44.6C241.9 42.7 242.8 41.2 244.1 40C245.4 38.8 246.7 38.2 248.2 38.2C249.8 38.2 251 38.8 251.8 40C252.7 41.2 253.2 43.3 253.6 46.2C253.9 49.1 254.1 53.2 254.1 58.6V67.5Z" fill="black"/>
</svg>
